<?xml version="1.0" standalone="no"?>
<!DOCTYPE svg PUBLIC "-//W3C//DTD SVG 1.1//EN" "http://www.w3.org/Graphics/SVG/1.1/DTD/svg11.dtd" >
<svg xmlns="http://www.w3.org/2000/svg">
<metadata></metadata>
<defs>
<font id="merelbold" horiz-adv-x="1452" >
<font-face units-per-em="2048" ascent="1638" descent="-410" />
<missing-glyph horiz-adv-x="489" />
<glyph horiz-adv-x="0" />
<glyph horiz-adv-x="682" />
<glyph unicode=" "  horiz-adv-x="489" />
<glyph unicode="&#x09;" horiz-adv-x="489" />
<glyph unicode="&#xa0;" horiz-adv-x="489" />
<glyph unicode="!" horiz-adv-x="448" d="M356 1100l-57 -631q-76 -19 -154 0l-55 631v231q57 11 133 11t133 -11v-231zM223 258q65 0 109.5 -40.5t44.5 -104.5q0 -62 -44.5 -103t-109.5 -41t-109 41t-44 103q0 64 44 104.5t109 40.5z" />
<glyph unicode="&#x22;" horiz-adv-x="786" d="M334 1331l-78 -403q-57 -10 -93 -10t-93 10v403q57 11 132 11t132 -11zM717 1331l-78 -403q-57 -10 -93 -10t-93 10v403q57 11 132 11t132 -11z" />
<glyph unicode="#" horiz-adv-x="1157" d="M799 582h198q3 -26 -11.5 -74t-29.5 -66h-196l-127 -442q-77 -21 -154 0l127 442h-184l-127 -442q-77 -21 -154 0l127 442h-196q-3 25 11 73.5t28 66.5h198l47 168h-196q-3 25 11 73t28 66h198l127 442q77 21 154 0l-127 -442h184l127 442q77 21 154 0l-127 -442h196 q3 -26 -10.5 -73.5t-27.5 -65.5h-199zM510 750l-49 -168h184l49 168h-184z" />
<glyph unicode="$" horiz-adv-x="1140" d="M1036 377q0 -179 -119 -286.5t-307 -119.5v-192q-43 -22 -86 0v190q-98 4 -196.5 34t-173.5 77q-11 29 -12 132.5t12 123.5q224 -146 395 -146q103 0 160 46t57 120q0 33 -11.5 58t-29.5 43t-57.5 36.5t-76.5 31.5t-106 34q-63 21 -109.5 40.5t-100.5 53t-88.5 73 t-57.5 98.5t-23 130q0 162 111.5 277.5t306.5 128.5v192q43 22 86 0v-192q187 -8 336 -109q11 -32 12.5 -132.5t-12.5 -121.5q-219 144 -371 144q-92 0 -146 -44t-54 -116q0 -31 11 -55t29.5 -42t56 -35.5t76 -31t103.5 -33.5q64 -20 109.5 -38t101.5 -52t91 -74t59 -103 t24 -140z" />
<glyph unicode="%" horiz-adv-x="1548" d="M362 1362q134 0 213.5 -95t79.5 -253t-79.5 -253t-213.5 -95t-213 95t-79 253t79 253t213 95zM1165 1331l-630 -1331q-77 -21 -154 0l631 1331q76 21 153 0zM362 1214q-112 0 -112 -200q0 -201 112 -201q51 0 82 47t31 154q0 200 -113 200zM1184 666q134 0 213.5 -95.5 t79.5 -253.5t-79.5 -253t-213.5 -95t-213.5 95t-79.5 253t79.5 253.5t213.5 95.5zM1186 518q-113 0 -113 -201q0 -200 113 -200q112 0 112 200q0 201 -112 201z" />
<glyph unicode="&#x26;" horiz-adv-x="1431" d="M571 1362q79 0 149.5 -20.5t126.5 -59.5t89 -102t33 -142q0 -59 -21 -110.5t-63.5 -95t-89 -77t-113.5 -73.5l229 -231q73 115 97 266q57 11 133 11t133 -11q-53 -264 -184 -443l272 -272q-57 -10 -162 -10t-162 10l-110 109q-183 -144 -400 -144q-122 0 -224.5 42.5 t-168 131t-65.5 207.5q0 120 63 208.5t189 170.5q-68 77 -106 148t-38 151q0 145 113 240.5t280 95.5zM573 1141q-57 0 -94 -33.5t-37 -87.5q0 -75 84 -176q98 52 137 90t39 90q0 50 -33.5 83.5t-95.5 33.5zM762 279l-279 278q-74 -48 -108.5 -92.5t-34.5 -106.5 q0 -82 59 -126t140 -44q114 0 223 91z" />
<glyph unicode="'" horiz-adv-x="405" d="M334 1331l-78 -403q-57 -10 -93 -10t-93 10v403q57 11 132 11t132 -11z" />
<glyph unicode="(" horiz-adv-x="563" d="M492 1331q-84 -162 -132.5 -374.5t-48.5 -405.5t48.5 -405.5t132.5 -374.5q-117 -22 -234 0q-89 153 -138.5 359.5t-49.5 420.5t49.5 420.5t138.5 359.5q117 22 234 0z" />
<glyph unicode=")" horiz-adv-x="563" d="M303 1331q89 -154 139 -360t50 -420t-50 -420t-139 -360q-116 -21 -233 0q84 162 132 374t48 406t-48 406t-132 374q117 21 233 0z" />
<glyph unicode="*" horiz-adv-x="878" d="M500 1055l252 116q51 -81 57 -174l-264 -57l192 -201q-64 -78 -141 -110l-156 250l-153 -250q-80 33 -144 110l193 201l-264 57q9 99 57 174l252 -116l-31 276q89 20 180 0z" />
<glyph unicode="+" horiz-adv-x="866" d="M522 629h264q22 -91 0 -185h-264v-260q-88 -21 -176 0v262h-264q-22 92 0 183h264v260q88 21 178 0z" />
<glyph unicode="," horiz-adv-x="462" d="M225 258q66 0 116.5 -45.5t51.5 -138.5q1 -108 -56.5 -224.5t-109.5 -150.5q-65 -14 -133 0q110 103 166 274q-28 -4 -37 -4q-64 0 -107.5 41t-43.5 103q0 63 44 104t109 41z" />
<glyph unicode="-" horiz-adv-x="724" d="M82 629h563q22 -91 0 -185l-563 2q-22 92 0 183z" />
<glyph unicode="." horiz-adv-x="448" d="M223 -31q-65 0 -109 41t-44 103q0 64 44 104.5t109 40.5t109.5 -40.5t44.5 -104.5q0 -62 -44.5 -103t-109.5 -41z" />
<glyph unicode="/" horiz-adv-x="716" d="M645 1331l-350 -1331q-113 -21 -225 0l350 1331q112 21 225 0z" />
<glyph unicode="0" horiz-adv-x="1333" d="M668 1362q258 0 409.5 -189t151.5 -507t-151.5 -507.5t-409.5 -189.5t-410 189.5t-152 507.5t151.5 507t410.5 189zM668 1141q-132 0 -211.5 -114.5t-79.5 -360.5t79.5 -361t211.5 -115t211 115t79 361t-79 360.5t-211 114.5z" />
<glyph unicode="1" horiz-adv-x="790" d="M80 1085l344 246q104 19 209 0v-1331q-57 -10 -133 -10t-131 10v1036l-289 -207q-13 22 -12 125t12 131z" />
<glyph unicode="2" horiz-adv-x="1085" d="M516 221h467q20 -111 0 -221h-909v20q268 307 406 488.5t178 266.5t40 159q0 96 -59.5 151.5t-155.5 55.5q-153 0 -340 -144q-14 21 -12.5 121.5t12.5 132.5q57 48 154 79.5t207 31.5q112 0 201.5 -33.5t146 -91t86 -132t29.5 -159.5q0 -152 -100 -308t-351 -417z" />
<glyph unicode="3" horiz-adv-x="1122" d="M551 1362q212 0 336.5 -100.5t124.5 -260.5q0 -106 -52 -189.5t-141 -125.5q108 -42 166.5 -129.5t58.5 -202.5q0 -118 -64.5 -207t-173 -134.5t-243.5 -45.5q-114 0 -223 31.5t-178 79.5q-11 32 -12 133t12 121q218 -144 379 -144q100 0 166.5 51.5t66.5 147.5 q0 82 -51.5 131t-153.5 49h-166q-19 105 0 211h162q81 0 132 49t51 131q0 84 -56.5 133.5t-152.5 49.5q-154 0 -367 -144q-13 20 -12 121.5t12 132.5q162 111 379 111z" />
<glyph unicode="4" horiz-adv-x="1187" d="M942 481h166q20 -110 0 -217h-166v-264q-57 -10 -133 -10t-133 10v264h-596q-20 107 0 217l653 850q105 19 209 0v-850zM678 958l-367 -477h367v477z" />
<glyph unicode="5" horiz-adv-x="1093" d="M305 1331h643q20 -111 0 -221h-440l-45 -303q53 16 112 16q192 0 316.5 -111.5t124.5 -305.5q0 -201 -138.5 -320t-353.5 -119q-111 0 -219.5 31.5t-177.5 79.5q-11 32 -12 133t12 121q218 -144 379 -144q105 0 172 59.5t67 158.5q0 104 -77.5 161.5t-202.5 57.5 q-57 0 -132.5 -20t-137.5 -48z" />
<glyph unicode="6" horiz-adv-x="1189" d="M694 852q118 -3 208 -61t136.5 -152.5t46.5 -208.5q0 -194 -134 -327.5t-353 -133.5q-225 0 -358.5 137.5t-133.5 352.5q0 120 44.5 245t110 222.5t145 184t145.5 140t115 80.5q56 11 161 11t162 -11q-188 -148 -315.5 -277.5t-196.5 -265.5q95 66 217 64zM596 190 q97 0 158 65.5t61 170.5q0 101 -60 161t-157 60q-119 0 -207 -88q-14 -63 -14 -137q0 -100 59.5 -166t159.5 -66z" />
<glyph unicode="7" horiz-adv-x="1126" d="M1055 1311l-609 -1311q-57 -10 -143 -10t-143 10l520 1110h-574q-20 110 0 221h949v-20z" />
<glyph unicode="8" horiz-adv-x="1120" d="M559 1362q205 0 327 -102.5t122 -258.5q0 -105 -52.5 -189t-140.5 -126q107 -43 166 -131t59 -203q0 -118 -63.5 -206.5t-171.5 -133.5t-246 -45t-246 45t-171.5 133.5t-63.5 206.5q0 115 59 203t166 131q-88 42 -140 125.5t-52 189.5q0 156 121.5 258.5t326.5 102.5z M559 1141q-84 0 -135 -52t-51 -131q0 -78 50 -130t126 -52h20q77 0 126.5 52.5t49.5 129.5q0 79 -51 131t-135 52zM569 569h-20q-89 0 -145 -51.5t-56 -136.5q0 -91 60 -142t151 -51t151 51t60 142q0 86 -55.5 137t-145.5 51z" />
<glyph unicode="9" horiz-adv-x="1189" d="M594 1362q225 0 358 -137.5t133 -352.5q0 -120 -44.5 -245t-110 -222.5t-144.5 -184t-145 -140t-115 -80.5q-57 -10 -161.5 -10t-161.5 10q122 96 208 173t171 176.5t131 193.5q-91 -67 -215 -64q-118 3 -208 61t-137 152.5t-47 208.5q0 94 34.5 177.5t96.5 146.5 t154.5 100t202.5 37zM596 1141q-97 0 -158 -65.5t-61 -170.5q0 -101 60 -161t157 -60q119 0 207 88q14 79 14 137q0 99 -60 165.5t-159 66.5z" />
<glyph unicode=":" horiz-adv-x="448" d="M223 561q-65 0 -109 41t-44 103q0 64 44 104.5t109 40.5t109.5 -40.5t44.5 -104.5q0 -62 -44.5 -103t-109.5 -41zM223 -31q-65 0 -109 41t-44 103q0 64 44 104.5t109 40.5t109.5 -40.5t44.5 -104.5q0 -62 -44.5 -103t-109.5 -41z" />
<glyph unicode=";" horiz-adv-x="462" d="M225 850q65 0 109.5 -40.5t44.5 -104.5q0 -62 -44.5 -103t-109.5 -41t-109 41t-44 103q0 64 44 104.5t109 40.5zM225 258q66 0 116.5 -45.5t51.5 -138.5q1 -108 -56.5 -224.5t-109.5 -150.5q-65 -14 -133 0q110 103 166 274q-28 -4 -37 -4q-64 0 -107.5 41t-43.5 103 q0 63 44 104t109 41z" />
<glyph unicode="&#x3c;" horiz-adv-x="892" d="M82 588l731 385q11 -44 11 -104.5t-11 -106.5l-428 -217l428 -219q11 -46 11 -106.5t-11 -104.5l-731 387q-10 19 -10 43t10 43z" />
<glyph unicode="=" horiz-adv-x="866" d="M82 795h704q22 -91 0 -185l-704 2q-22 91 0 183zM82 473h704q21 -90 0 -184l-704 2q-22 91 0 182z" />
<glyph unicode="&#x3e;" horiz-adv-x="892" d="M82 973l731 -385q11 -19 11 -43t-11 -43l-731 -387q-10 44 -10 104.5t10 106.5l428 219l-428 217q-10 46 -10 106.5t10 104.5z" />
<glyph unicode="?" horiz-adv-x="993" d="M563 469q-57 -11 -133 -11t-133 11q0 69 16.5 115t48.5 80.5t101 89.5q116 86 143 114q47 49 47 113q0 73 -53.5 116.5t-144.5 43.5q-154 0 -373 -144q-13 20 -12 121.5t12 132.5q73 49 179.5 80t219.5 31q108 0 194.5 -30t139.5 -80.5t81 -113.5t28 -132 q0 -46 -12.5 -86t-29 -69.5t-54 -67t-65 -61t-85.5 -69.5q-40 -30 -56 -43.5t-33 -35.5t-21.5 -45t-4.5 -60zM430 -31q-65 0 -109.5 41t-44.5 103q0 64 44.5 104.5t109.5 40.5t109.5 -40.5t44.5 -104.5q0 -62 -44.5 -103t-109.5 -41z" />
<glyph unicode="@" horiz-adv-x="1871" d="M967 1239q189 0 342 -58.5t252 -160.5t152.5 -237.5t53.5 -290.5q0 -118 -23 -211t-59.5 -150t-86 -95t-98.5 -52.5t-101 -14.5q-81 0 -155.5 36.5t-113.5 109.5q-58 -73 -122.5 -109.5t-161.5 -36.5q-174 0 -280.5 126.5t-106.5 314.5t106.5 314t280.5 126 q172 0 274 -133l19 102q105 19 209 0v-530q0 -133 75 -133q69 0 114.5 83t45.5 253q0 274 -166.5 425.5t-449.5 151.5q-140 0 -263 -44t-215 -125t-145 -205.5t-53 -276.5q0 -108 28 -201t72.5 -158t104.5 -115.5t120.5 -79t124.5 -42.5q14 -22 13.5 -82t-11.5 -88 q-127 17 -242.5 80.5t-203.5 162t-139.5 235.5t-51.5 290q0 171 63.5 322t175.5 260.5t273.5 173t348.5 63.5zM909 641q-93 0 -151 -63t-58 -168t58 -168.5t151 -63.5q109 0 197 88v287q-88 88 -197 88z" />
<glyph unicode="A" d="M838 1331l546 -1331q-57 -10 -137 -10t-137 10l-115 295h-536l-115 -295q-57 -10 -137 -10t-137 10l546 1331q111 20 222 0zM543 518h368l-184 471z" />
<glyph unicode="B" horiz-adv-x="1249" d="M158 1331h555q189 0 307.5 -96t118.5 -248q0 -104 -51 -180.5t-138 -116.5q104 -40 162.5 -123t58.5 -194q0 -172 -122.5 -272.5t-331.5 -100.5h-559v1331zM422 1110v-342h268q84 0 133 44.5t49 125.5q0 82 -50.5 127t-137.5 45h-262zM422 580v-359h278q96 0 148.5 47.5 t52.5 134.5q0 84 -52.5 130.5t-152.5 46.5h-274z" />
<glyph unicode="C" horiz-adv-x="1425" d="M860 190q198 0 404 132q13 -20 12 -117t-12 -125q-175 -111 -418 -111q-166 0 -306 55t-234.5 149.5t-147 222t-52.5 270.5t52.5 270t147 221.5t234.5 149.5t306 55q243 0 418 -111q11 -28 12 -124.5t-12 -116.5q-204 131 -404 131q-135 0 -244.5 -58t-174 -167.5 t-64.5 -249.5t64.5 -249.5t174 -168t244.5 -58.5z" />
<glyph unicode="D" d="M158 1331h483q160 0 293.5 -51t223.5 -140t140 -211t50 -263t-50 -263t-140 -211.5t-223.5 -140.5t-293.5 -51h-483v1331zM422 221h219q195 0 314.5 119t119.5 326t-119.5 325.5t-314.5 118.5h-219v-889z" />
<glyph unicode="E" horiz-adv-x="1161" d="M424 221h649q20 -110 0 -221h-915v1331h915q20 -111 0 -221h-649v-324h584q20 -111 0 -221h-584v-344z" />
<glyph unicode="F" horiz-adv-x="1161" d="M424 772h584q20 -110 0 -221h-584v-551q-57 -10 -133 -10t-133 10v1331h915q20 -111 0 -221h-649v-338z" />
<glyph unicode="G" horiz-adv-x="1449" d="M1040 219v426q57 11 130.5 11t129.5 -11v-565q-69 -47 -194.5 -79t-259.5 -32q-166 0 -306 55t-234.5 149.5t-147 222t-52.5 270.5t52.5 270t147 221.5t234.5 149.5t306 55q243 0 418 -111q11 -28 12 -124.5t-12 -116.5q-204 131 -404 131q-135 0 -244.5 -58t-174 -167.5 t-64.5 -249.5q0 -214 138 -347t345 -133q93 0 180 33z" />
<glyph unicode="H" horiz-adv-x="1488" d="M1069 786v545q57 11 132 11t132 -11v-1331q-57 -10 -132 -10t-132 10v565h-645v-565q-57 -10 -133 -10t-133 10v1331q57 11 133 11t133 -11v-545h645z" />
<glyph unicode="I" horiz-adv-x="579" d="M424 1331v-1331q-57 -10 -133 -10t-133 10v1331q57 11 133 11t133 -11z" />
<glyph unicode="J" horiz-adv-x="837" d="M680 1331v-956q0 -194 -95 -300t-263 -106q-139 0 -242 66q-11 28 -12 111.5t12 105.5q89 -45 168 -45q74 0 121 45t47 147v932q56 11 131.5 11t132.5 -11z" />
<glyph unicode="K" horiz-adv-x="1345" d="M707 684l571 -684q-57 -10 -158.5 -10t-158.5 10l-537 645v-645q-57 -10 -133 -10t-133 10v1331q57 11 133 11t133 -11v-608l514 608q57 11 158.5 11t158.5 -11z" />
<glyph unicode="L" horiz-adv-x="1107" d="M424 221h604q23 -110 0 -221h-870v1331q57 11 133 11t133 -11v-1110z" />
<glyph unicode="M" horiz-adv-x="1871" d="M1489 1331l313 -1331q-57 -10 -129 -10t-129 10l-192 858l-310 -858q-105 -20 -213 0l-309 858l-190 -858q-57 -10 -130 -10t-130 10l313 1331q111 21 223 0l330 -915l330 915q112 21 223 0z" />
<glyph unicode="N" horiz-adv-x="1474" d="M1323 1331v-1331q-103 -20 -209 0l-698 885v-885q-57 -10 -133 -10t-133 10v1331q104 19 208 0l701 -885v885q57 11 133 11t131 -11z" />
<glyph unicode="O" horiz-adv-x="1617" d="M809 1362q154 0 286.5 -55t223.5 -149t142.5 -221.5t51.5 -270.5t-51.5 -270.5t-142.5 -222t-223.5 -149.5t-286.5 -55q-204 0 -366 94.5t-249.5 253t-87.5 349.5q0 143 51.5 270.5t142.5 221.5t223.5 149t285.5 55zM809 1141q-184 0 -308 -132t-124 -343t124 -343.5 t308 -132.5q185 0 309.5 132t124.5 344q0 211 -124.5 343t-309.5 132z" />
<glyph unicode="P" horiz-adv-x="1263" d="M158 1331h506q226 0 360.5 -122.5t134.5 -317.5t-134.5 -317.5t-360.5 -122.5h-240v-451q-57 -10 -133 -10t-133 10v1331zM422 672h240q105 0 166 58.5t61 160.5q0 101 -61.5 160t-165.5 59h-240v-438z" />
<glyph unicode="Q" horiz-adv-x="1617" d="M809 1362q154 0 286.5 -55t223.5 -149t142.5 -221.5t51.5 -270.5q0 -222 -120 -399t-322 -249l250 -356q-57 -10 -138.5 -10t-138.5 10l-217 307h-32q-121 2 -229 38.5t-191 100.5t-144 150t-93 190.5t-32 217.5q0 143 51.5 270.5t142.5 221.5t223.5 149t285.5 55z M809 1141q-184 0 -308 -132t-124 -343t124 -343.5t308 -132.5q185 0 309.5 132t124.5 344q0 211 -124.5 343t-309.5 132z" />
<glyph unicode="R" horiz-adv-x="1302" d="M158 1331h518q226 0 360.5 -121t134.5 -313q0 -138 -73.5 -243t-208.5 -150l342 -504q-57 -10 -145.5 -10t-145.5 10l-317 465h-199v-465q-57 -10 -133 -10t-133 10v1331zM422 1110v-424h252q105 0 166 56.5t61 154.5t-61.5 155.5t-165.5 57.5h-252z" />
<glyph unicode="S" horiz-adv-x="1140" d="M573 1362q206 0 373 -111q11 -32 12.5 -132.5t-12.5 -121.5q-219 144 -371 144q-92 0 -146 -44t-54 -116q0 -31 11 -55t29.5 -42t56 -35.5t76 -31t103.5 -33.5q64 -20 109.5 -38t101.5 -52t91 -74t59 -103t24 -140q0 -128 -64.5 -222t-171 -140t-241.5 -46 q-107 0 -216 30t-189 81q-11 29 -12 132.5t12 123.5q224 -146 395 -146q103 0 160 46t57 120q0 33 -11.5 58t-29.5 43t-57.5 36.5t-76.5 31.5t-106 34q-63 21 -109.5 40.5t-100.5 53t-88.5 73t-57.5 98.5t-23 130q0 172 125 290t342 118z" />
<glyph unicode="T" horiz-adv-x="1202" d="M80 1331h1042q20 -111 0 -221h-389v-1110q-55 -10 -131 -10t-133 10v1110h-389q-20 110 0 221z" />
<glyph unicode="U" horiz-adv-x="1419" d="M999 504v827q57 11 135.5 11t135.5 -11v-788q0 -288 -144 -431t-411 -143t-412 143.5t-145 430.5v788q57 11 135 11t135 -11v-827q0 -142 75.5 -228t211.5 -86q134 0 209 86t75 228z" />
<glyph unicode="V" horiz-adv-x="1431" d="M717 395l373 936q57 11 137 11t137 -11l-537 -1331q-110 -20 -221 0l-536 1331q57 11 137 11t137 -11z" />
<glyph unicode="W" horiz-adv-x="2086" d="M2019 1331l-458 -1331q-111 -20 -222 0l-295 891l-294 -891q-111 -20 -222 0l-458 1331q57 11 137 11t137 -11l295 -936l295 936q110 20 221 0l295 -936l295 936q57 11 137 11t137 -11z" />
<glyph unicode="X" horiz-adv-x="1355" d="M856 684l430 -684q-57 -10 -152.5 -10t-150.5 10l-313 498l-295 -498q-57 -10 -152.5 -10t-152.5 10l430 684l-412 647q57 11 152.5 11t152.5 -11l293 -465l277 465q57 11 152.5 11t152.5 -11z" />
<glyph unicode="Y" horiz-adv-x="1390" d="M829 475v-475q-57 -10 -133 -10t-133 10v475l-493 856q57 11 142 11t142 -11l342 -608l340 608q57 11 142.5 11t142.5 -11z" />
<glyph unicode="Z" horiz-adv-x="1144" d="M469 221h586q20 -110 0 -221h-977v20l598 1090h-565q-20 110 0 221h954v-20z" />
<glyph unicode="[" horiz-adv-x="593" d="M311 -20l201 2q19 -104 0 -211h-442v1558l442 2q19 -104 0 -211h-201v-1140z" />
<glyph unicode="\" horiz-adv-x="716" d="M420 0l-350 1331q113 21 225 0l350 -1331q-113 -21 -225 0z" />
<glyph unicode="]" horiz-adv-x="593" d="M524 -229h-442q-19 107 0 211l201 -2v1140h-201q-19 107 0 211l442 -2v-1558z" />
<glyph unicode="^" horiz-adv-x="841" d="M420 1331l338 -340q13 -32 13.5 -136t-13.5 -124l-338 342l-338 -342q-13 20 -12 124t12 136z" />
<glyph unicode="_" horiz-adv-x="966" d="M82 -66h805q21 -90 0 -184l-805 2q-22 91 0 182z" />
<glyph unicode="`" horiz-adv-x="530" d="M227 1882l232 -334q-14 -28 -54.5 -59t-72.5 -37l-262 307q14 31 68.5 74t88.5 49z" />
<glyph unicode="a" horiz-adv-x="978" d="M473 850q199 0 292 -97.5t93 -287.5v-465q-104 -19 -209 0l-14 88q-47 -54 -116.5 -86.5t-145.5 -32.5q-123 0 -206 70.5t-83 193.5q0 122 83.5 193.5t213.5 71.5q73 0 135.5 -23t99.5 -55v65q0 87 -46.5 128.5t-145.5 41.5q-125 0 -260 -77q-14 21 -12.5 93t12.5 101 q47 32 128.5 55t180.5 23zM444 348q-59 0 -89.5 -28t-30.5 -70q0 -43 30.5 -71.5t87.5 -28.5q48 0 97 19.5t77 41.5v78q-26 22 -75 40.5t-97 18.5z" />
<glyph unicode="b" horiz-adv-x="1101" d="M625 850q174 0 280.5 -126t106.5 -314t-106.5 -314.5t-280.5 -126.5q-173 0 -275 133l-18 -102q-104 -19 -209 0v1331q121 22 242 0v-596q98 115 260 115zM559 178q94 0 152.5 63.5t58.5 168.5t-58.5 168t-152.5 63q-111 0 -194 -88v-287q83 -88 194 -88z" />
<glyph unicode="c" horiz-adv-x="964" d="M575 172q114 0 256 84q14 -20 13.5 -95.5t-13.5 -103.5q-111 -88 -280 -88q-205 0 -333 123.5t-128 317.5t128 317t333 123q169 0 280 -88q13 -28 13.5 -103.5t-13.5 -95.5q-142 84 -256 84q-105 0 -174 -64.5t-69 -172.5t69 -173t174 -65z" />
<glyph unicode="d" horiz-adv-x="1101" d="M737 735v596q121 22 242 0v-1331q-105 -19 -211 0l-16 102q-102 -133 -275 -133q-174 0 -280.5 126.5t-106.5 314.5t106.5 314t280.5 126q162 0 260 -115zM737 266v287q-88 88 -196 88q-93 0 -151 -63t-58 -168t58 -168.5t151 -63.5q108 0 196 88z" />
<glyph unicode="e" horiz-adv-x="1015" d="M532 850q68 0 126.5 -16.5t101.5 -44.5t76.5 -66t53.5 -81t30.5 -89t9.5 -90.5t-12 -85.5h-584q10 -96 76.5 -150.5t167.5 -54.5q128 0 270 84q13 -20 12 -95.5t-12 -103.5q-115 -88 -297 -88q-208 0 -334.5 122.5t-126.5 320.5q0 192 124 315t318 123zM535 668 q-74 0 -124 -44t-63 -120h350q-3 76 -47 120t-116 44z" />
<glyph unicode="f" horiz-adv-x="778" d="M553 1159q-115 0 -115 -131v-209h224q23 -103 0 -203h-224v-616q-120 -22 -241 0v616h-121q-23 100 0 203h121v258q0 136 84.5 210.5t207.5 74.5q108 0 209 -43q11 -29 12 -110t-12 -101q-93 51 -145 51z" />
<glyph unicode="g" horiz-adv-x="1101" d="M477 850q173 0 275 -133l16 102q106 19 211 0v-784q0 -184 -115.5 -292t-316.5 -108q-100 0 -187 25t-133 59q-11 28 -12 101.5t12 93.5q130 -80 271 -80q106 0 172.5 46.5t66.5 142.5v75q-99 -112 -260 -112q-174 0 -280.5 124.5t-106.5 307.5q0 182 106.5 307 t280.5 125zM541 641q-93 0 -151 -62t-58 -161t58 -161t151 -62q108 0 196 88v270q-88 88 -196 88z" />
<glyph unicode="h" horiz-adv-x="1046" d="M618 850q82 0 143.5 -27.5t96 -74.5t51.5 -102.5t17 -117.5v-528q-121 -22 -242 0v475q0 79 -37 122.5t-110 43.5q-48 0 -93.5 -23.5t-74.5 -54.5v-563q-121 -22 -242 0v1331q121 22 242 0v-594q121 113 249 113z" />
<glyph unicode="i" horiz-adv-x="559" d="M281 1313q65 0 109 -41.5t44 -104.5t-44 -104t-109 -41t-109.5 41.5t-44.5 103.5q0 63 44.5 104.5t109.5 41.5zM401 819v-819q-120 -22 -241 0v819q121 22 241 0z" />
<glyph unicode="j" horiz-adv-x="614" d="M338 1309q65 0 109.5 -41t44.5 -103q0 -61 -44.5 -102t-109.5 -41q-64 0 -108 41t-44 102q0 62 44 103t108 41zM459 819v-913q0 -132 -63.5 -201.5t-176.5 -69.5q-50 0 -107 12.5t-92 28.5q-11 28 -12 104.5t12 96.5q83 -39 134 -39q37 0 50 23.5t13 79.5v878 q121 22 242 0z" />
<glyph unicode="k" horiz-adv-x="1015" d="M608 428l340 -428q-57 -10 -137 -10t-137 10l-305 391v-391q-121 -22 -242 0v1331q121 22 242 0v-868l295 356q57 11 137 11t137 -11z" />
<glyph unicode="l" horiz-adv-x="489" d="M369 1331v-1331q-121 -22 -242 0v1331q121 22 242 0z" />
<glyph unicode="m" horiz-adv-x="1603" d="M1180 850q81 0 141.5 -27.5t94.5 -74.5t50.5 -102.5t16.5 -117.5v-528q-121 -22 -242 0v475q0 79 -35.5 122.5t-107.5 43.5q-90 0 -174 -84v-557q-121 -22 -242 0v475q0 79 -35.5 122.5t-107.5 43.5q-50 0 -96.5 -25.5t-77.5 -58.5v-557q-121 -22 -242 0v819 q105 19 209 0l18 -106q52 59 123 98t148 39q198 0 270 -158q59 70 133.5 114t155.5 44z" />
<glyph unicode="n" horiz-adv-x="1048" d="M623 850q66 0 119 -18.5t87.5 -49t57.5 -73t33 -87.5t10 -94v-528q-121 -22 -242 0v475q0 79 -37 122.5t-110 43.5q-51 0 -98 -25.5t-78 -58.5v-557q-121 -22 -242 0v819q105 19 209 0l18 -106q52 59 124 98t149 39z" />
<glyph unicode="o" horiz-adv-x="1083" d="M541 850q195 0 322.5 -127t127.5 -313t-127.5 -313.5t-322.5 -127.5t-323 127.5t-128 313.5q0 185 127.5 312.5t323.5 127.5zM541 641q-91 0 -150 -63.5t-59 -167.5t59 -168t150 -64t150 64t59 168t-59 167.5t-150 63.5z" />
<glyph unicode="p" horiz-adv-x="1105" d="M629 850q174 0 280.5 -126t106.5 -314t-106.5 -314.5t-280.5 -126.5q-162 0 -260 115v-418q-121 -22 -242 0v1153q104 19 209 0l18 -102q102 133 275 133zM563 178q94 0 152.5 63.5t58.5 168.5t-58.5 168t-152.5 63q-111 0 -194 -88v-287q83 -88 194 -88z" />
<glyph unicode="q" horiz-adv-x="1101" d="M752 717l16 102q106 19 211 0v-1153q-121 -22 -242 0v418q-98 -115 -260 -115q-174 0 -280.5 126.5t-106.5 314.5t106.5 314t280.5 126q173 0 275 -133zM737 266v287q-88 88 -196 88q-93 0 -151 -63t-58 -168t58 -168.5t151 -63.5q108 0 196 88z" />
<glyph unicode="r" horiz-adv-x="835" d="M758 813q13 -20 12 -119.5t-12 -128.5q-46 31 -85.5 47.5t-92.5 16.5q-62 0 -121 -44t-94 -110v-475q-121 -22 -242 0v819q105 19 209 0l26 -149q102 180 258 180q86 0 142 -37z" />
<glyph unicode="s" horiz-adv-x="829" d="M485 506q131 -43 199 -103t68 -165q0 -129 -100.5 -199t-245.5 -70q-80 0 -164.5 20t-126.5 50q-13 29 -13.5 96.5t13.5 87.5q66 -42 142.5 -69t135.5 -27q51 0 84 20.5t33 59.5q0 34 -28.5 51t-105.5 42q-22 7 -34 11q-48 16 -82.5 30.5t-71 37.5t-59 50t-37 65.5 t-14.5 85.5q0 124 92 197t242 73q79 0 160.5 -20t125.5 -50q11 -29 12 -96.5t-12 -87.5q-156 96 -266 96q-49 0 -82 -22.5t-33 -59.5q0 -12 3.5 -22t13 -18.5t17.5 -14.5t26.5 -13t29.5 -11t37.5 -12t40.5 -13z" />
<glyph unicode="t" horiz-adv-x="784" d="M672 254q14 -21 12.5 -96.5t-12.5 -104.5q-31 -34 -92 -59t-134 -25q-118 0 -183.5 69t-65.5 202v376h-121q-23 100 0 203h121v266q120 22 241 0v-266h230q23 -103 0 -203h-230v-342q0 -50 16.5 -76t55.5 -26q68 0 162 82z" />
<glyph unicode="u" horiz-adv-x="1044" d="M684 262v557q121 22 242 0v-819q-106 -20 -209 0l-19 106q-52 -59 -123.5 -98t-148.5 -39q-82 0 -144 27.5t-96 75t-50.5 102t-16.5 117.5v528q121 22 241 0v-475q0 -78 37.5 -122t110.5 -44q92 0 176 84z" />
<glyph unicode="v" horiz-adv-x="1060" d="M530 317l211 502q127 23 254 0l-366 -819q-98 -23 -197 0l-366 819q126 23 253 0z" />
<glyph unicode="w" horiz-adv-x="1538" d="M383 0l-317 819q57 11 128 11t128 -11l161 -500l187 500q43 11 99 11t99 -11l187 -500l162 500q57 11 128 11t128 -11l-318 -819q-99 -23 -197 0l-188 516l-190 -516q-98 -23 -197 0z" />
<glyph unicode="x" horiz-adv-x="1038" d="M682 428l289 -428q-57 -10 -135.5 -10t-135.5 10l-188 270l-180 -270q-57 -10 -133 -10t-133 10l290 428l-274 391q57 11 136 11t136 -11l172 -246l164 246q55 11 132 11t134 -11z" />
<glyph unicode="y" horiz-adv-x="1060" d="M530 330l211 489q127 23 254 0l-524 -1153q-123 -23 -246 0l183 402l-342 751q126 23 253 0z" />
<glyph unicode="z" horiz-adv-x="884" d="M434 209l365 2q19 -104 0 -211h-723v18l375 592h-342q-19 104 0 209h700v-18z" />
<glyph unicode="{" horiz-adv-x="686" d="M289 551q72 -38 109 -80.5t44 -108.5q24 -181 44 -260q38 -149 128 -331q-117 -21 -233 0q-164 283 -186 630q-2 44 -26 71t-99 63v32q76 36 99.5 62.5t25.5 70.5q22 348 186 631q116 21 233 0q-46 -93 -77 -171t-48.5 -150.5t-25 -117t-17.5 -122.5q-3 -21 -4 -31 q-7 -66 -44 -107.5t-109 -80.5z" />
<glyph unicode="|" horiz-adv-x="294" d="M225 1331v-1454q-44 -11 -77.5 -11t-77.5 11v1454q44 11 77.5 11t77.5 -11z" />
<glyph unicode="}" horiz-adv-x="686" d="M489 700q2 -44 25.5 -70.5t99.5 -62.5v-32q-75 -36 -99 -63t-26 -71q-22 -347 -186 -630q-116 -21 -233 0q60 122 96.5 230t47 166.5t24.5 164.5q3 20 4 30q7 66 44 108.5t109 80.5q-72 39 -109 80.5t-44 107.5q-24 181 -44 260q-38 150 -128 332q117 21 233 0 q164 -283 186 -631z" />
<glyph unicode="~" horiz-adv-x="944" d="M315 629q46 0 90 -16t74 -34.5t71.5 -34.5t82.5 -16q26 0 51.5 5t55 17.5t43.5 18.5t46.5 24t34.5 19q21 -94 0 -184q-1 0 -44 -24t-60 -31.5t-55.5 -18t-73.5 -10.5q-57 0 -111 25t-105 50t-102 25q-26 0 -51.5 -5t-55 -17.5t-43.5 -18.5t-46.5 -24t-34.5 -19 q-22 94 0 185q1 0 44 24t60 31.5t55.5 18t73.5 10.5z" />
<glyph unicode="&#xa1;" horiz-adv-x="448" d="M223 1012q65 0 109.5 -41t44.5 -103q0 -64 -44.5 -104.5t-109.5 -40.5t-109 40.5t-44 104.5q0 62 44 103t109 41zM356 -119v-231q-57 -10 -133 -10t-133 10v231l55 631q78 19 154 0z" />
<glyph unicode="&#xa2;" horiz-adv-x="962" d="M575 172q114 0 256 84q14 -20 13.5 -95.5t-13.5 -103.5q-95 -76 -235 -86v-192q-42 -22 -88 0v192q-189 13 -303.5 133.5t-114.5 305.5t114.5 305t303.5 133v192q46 22 88 0v-192q140 -10 235 -86q13 -28 13.5 -103.5t-13.5 -95.5q-142 84 -256 84q-105 0 -174 -64.5 t-69 -172.5t69 -173t174 -65z" />
<glyph unicode="&#xa3;" horiz-adv-x="1177" d="M453 221h563q20 -110 0 -221h-875v20q46 69 71.5 143t30.5 151.5t1.5 141.5t-15.5 148h-149q-21 44 0 88h135q-25 175 -25 254q0 85 29.5 159.5t86 132t146 91t201.5 33.5q109 0 207 -31.5t156 -79.5q11 -31 12 -132.5t-12 -121.5q-190 144 -342 144q-96 0 -155.5 -55.5 t-59.5 -151.5q0 -88 30 -242h361q21 -44 0 -88h-342q9 -78 9.5 -135.5t-14.5 -125.5t-50 -122z" />
<glyph unicode="&#xa4;" horiz-adv-x="757" d="M686 874l-88 -88q52 -71 52 -159t-52 -160l88 -86q-12 -48 -61 -64l-88 89q-70 -51 -159 -50.5t-159 52.5l-88 -91q-45 16 -61 64l88 88q-51 71 -51 158.5t51 158.5l-88 88q16 46 61 62l88 -88q70 52 158.5 52t159.5 -52l88 88q48 -16 61 -62zM285 535q42 -40 95 -41 t93 38q38 38 38 93t-40 96q-41 40 -94.5 40t-93.5 -38q-38 -40 -38 -93.5t40 -94.5z" />
<glyph unicode="&#xa5;" horiz-adv-x="1390" d="M829 317h269q21 -44 0 -88h-269v-229q-57 -10 -133 -10t-133 10v229h-268q-21 44 0 88h268v132h-268q-22 43 0 86h235l-460 796q57 11 142 11t142 -11l342 -608l340 608q57 11 142.5 11t142.5 -11l-459 -796h236q22 -43 0 -86h-269v-132z" />
<glyph unicode="&#xa6;" horiz-adv-x="294" d="M225 1331v-639q-44 -10 -77.5 -10t-77.5 10v639q44 11 77.5 11t77.5 -11zM225 516v-639q-44 -11 -77.5 -11t-77.5 11v639q44 10 77.5 10t77.5 -10z" />
<glyph unicode="&#xa7;" horiz-adv-x="815" d="M403 1124q79 0 161 -19.5t126 -49.5q11 -29 12 -97t-12 -88q-157 97 -266 97q-49 0 -82 -22.5t-33 -59.5q0 -10 2 -18t8 -15t11.5 -13t16 -11.5t19 -9.5t24 -9.5t26 -9t30 -9.5t31.5 -10q136 -45 201 -106.5t65 -161.5q0 -126 -104 -197q104 -71 104 -194 q0 -127 -92.5 -200t-244.5 -73q-78 0 -160.5 20t-124.5 50q-11 30 -12.5 96.5t12.5 87.5q66 -42 138.5 -69t127.5 -27q50 0 83.5 22t33.5 62q0 26 -21 44.5t-41.5 27t-78.5 26.5l-27 9q-135 44 -200.5 105t-65.5 161q0 122 108 196q-108 70 -108 195t91.5 197.5t241.5 72.5z M334 586l-49 16q-47 -15 -47 -51q0 -17 6.5 -32.5t15 -27t26 -23t31 -18.5t39 -17t39.5 -14.5t44 -14t42 -13.5l54 -20q40 17 40 53q0 16 -4 29.5t-13.5 25.5t-19 21.5t-27 18.5t-30 15.5t-35 14.5t-36 12.5t-39 12.5t-37.5 12z" />
<glyph unicode="&#xa8;" horiz-adv-x="944" d="M223 1796q65 0 109.5 -41.5t44.5 -103.5q0 -63 -44.5 -104.5t-109.5 -41.5t-109 41.5t-44 104.5t44 104t109 41zM721 1796q65 0 109 -41t44 -104t-44 -104.5t-109 -41.5t-109.5 41.5t-44.5 104.5q0 62 44.5 103.5t109.5 41.5z" />
<glyph unicode="&#xa9;" horiz-adv-x="1251" d="M625 1434q114 0 217.5 -44t177 -118.5t117 -176.5t43.5 -214t-43.5 -214t-117 -176.5t-177 -118.5t-217.5 -44t-217.5 44t-177 118.5t-117 176.5t-43.5 214t43.5 214t117 176.5t177 118.5t217.5 44zM625 1325q-123 0 -225.5 -60t-161 -162t-58.5 -222q0 -185 129 -316 t316 -131q189 0 317.5 130.5t128.5 316.5q0 185 -128.5 314.5t-317.5 129.5zM643 1159q108 0 178 -55q8 -19 9 -66t-9 -59q-85 53 -162 53q-68 0 -112.5 -41.5t-44.5 -111.5q0 -69 44.5 -110.5t112.5 -41.5q82 0 162 53q10 -12 9 -60.5t-9 -64.5q-68 -57 -178 -57 q-131 0 -213 78.5t-82 202.5q0 125 81.5 202.5t213.5 77.5z" />
<glyph unicode="&#xab;" horiz-adv-x="944" d="M309 444l193 -319q-57 -11 -94 -11t-93 11l-245 319l245 320q56 10 93 10t94 -10zM680 444l192 -319q-57 -11 -93.5 -11t-92.5 11l-246 319l246 320q56 10 92.5 10t93.5 -10z" />
<glyph unicode="&#xac;" horiz-adv-x="856" d="M786 629l-2 -387q-96 -23 -192 0v202l-510 2q-22 92 0 183h704z" />
<glyph unicode="&#xad;" horiz-adv-x="724" d="M82 629h563q22 -91 0 -185l-563 2q-22 92 0 183z" />
<glyph unicode="&#xae;" horiz-adv-x="1251" d="M625 1434q114 0 217.5 -44t177 -118.5t117 -176.5t43.5 -214t-43.5 -214t-117 -176.5t-177 -118.5t-217.5 -44t-217.5 44t-177 118.5t-117 176.5t-43.5 214t43.5 214t117 176.5t177 118.5t217.5 44zM625 1325q-123 0 -225.5 -60t-161 -162t-58.5 -222q0 -185 129 -316 t316 -131q189 0 317.5 130.5t128.5 316.5q0 185 -128.5 314.5t-317.5 129.5zM389 1147h297q87 0 137.5 -46t50.5 -136q0 -55 -28.5 -93.5t-75.5 -54.5l145 -196q-35 -9 -83.5 -9t-83.5 9l-132 174h-73v-174q-77 -20 -154 0v526zM543 1036v-131h102q78 0 78 66q0 65 -78 65 h-102z" />
<glyph unicode="&#xaf;" horiz-adv-x="692" d="M82 1690h530q22 -91 0 -185l-530 2q-22 91 0 183z" />
<glyph unicode="&#xb0;" horiz-adv-x="659" d="M328 1501q109 0 184.5 -75.5t75.5 -182.5q0 -106 -76 -182t-184 -76q-107 0 -182.5 76t-75.5 182q0 107 75.5 182.5t182.5 75.5zM328 1348q-43 0 -74 -30.5t-31 -74.5t31 -74t74 -30q44 0 75 30t31 74t-31 74.5t-75 30.5z" />
<glyph unicode="&#xb1;" horiz-adv-x="866" d="M346 584h-264q-22 91 0 182h264v160q88 21 178 0l-2 -160h264q21 -90 0 -184h-264v-158q-88 -21 -176 0v160zM82 344h704q21 -90 0 -184l-704 2q-22 91 0 182z" />
<glyph unicode="&#xb4;" horiz-adv-x="530" d="M70 1548l231 334q34 -6 89 -49t69 -74l-262 -307q-32 6 -72.5 37t-54.5 59z" />
<glyph unicode="&#xb6;" horiz-adv-x="1247" d="M494 1331h671q11 -44 11 -76.5t-11 -76.5h-127v-1512q-44 -10 -76.5 -10t-76.5 10v1512h-236v-1512q-44 -10 -77.5 -10t-77.5 10v862q-63 0 -121.5 13t-114.5 43t-97 74t-66 112t-25 152q0 105 37.5 186t99.5 128.5t135 71t152 23.5z" />
<glyph unicode="&#xb7;" horiz-adv-x="448" d="M223 362q-65 0 -109 41t-44 103q0 64 44 104.5t109 40.5t109.5 -40.5t44.5 -104.5q0 -62 -44.5 -103t-109.5 -41z" />
<glyph unicode="&#xb8;" horiz-adv-x="497" d="M262 0v-106q61 5 113.5 -38t52.5 -120q0 -78 -55 -127t-142 -49q-84 0 -151 43q-9 23 -9 64t9 61q77 -54 135 -54q41 2 65.5 22t24.5 54q0 50 -48.5 68t-111.5 -8v190h117z" />
<glyph unicode="&#xbb;" horiz-adv-x="944" d="M502 444l-244 -319q-57 -11 -94 -11t-94 11l192 319l-192 320q57 10 94 10t94 -10zM872 444l-243 -319q-57 -11 -94.5 -11t-94.5 11l193 319l-193 320q57 10 94.5 10t94.5 -10z" />
<glyph unicode="&#xbc;" horiz-adv-x="1345" d="M401 1331v-635q-91 -20 -180 0v459l-139 -100q-10 15 -10 70.5t10 74.5l182 131q69 20 137 0zM1049 1331l-631 -1331q-77 -21 -154 0l631 1331q77 21 154 0zM1184 248h80q19 -68 0 -137h-80v-111q-91 -20 -180 0v111h-261q-19 68 0 137l304 387q69 20 137 0v-387z M866 248h138v176z" />
<glyph unicode="&#xbd;" horiz-adv-x="1409" d="M389 1331v-635q-91 -20 -180 0v459l-139 -100q-10 15 -10 70.5t10 74.5l182 131q69 20 137 0zM1038 1331l-630 -1331q-77 -21 -154 0l631 1331q77 21 153 0zM1063 666q122 0 188 -65t66 -155q0 -73 -46 -140.5t-159 -158.5h215q23 -73 0 -147h-493v14q186 189 245.5 273 t59.5 145q0 34 -27.5 60t-77.5 26q-70 0 -164 -72q-6 9 -6 79.5t6 84.5q29 23 83 39.5t110 16.5z" />
<glyph unicode="&#xbe;" horiz-adv-x="1423" d="M537 864q0 -92 -69 -145t-179 -53q-62 0 -120 16t-91 41q-6 16 -6.5 78.5t6.5 72.5q112 -71 186 -71q44 0 75.5 20.5t31.5 59.5q0 75 -103 75h-71q-10 62 0 125h69q39 0 63.5 19.5t24.5 50.5q0 32 -25.5 52t-66.5 20q-66 0 -180 -72q-6 10 -5.5 73t5.5 79q81 57 201 57 q110 0 174.5 -53t64.5 -131q0 -98 -92 -152q52 -22 79.5 -64t27.5 -98zM344 0l631 1331q77 21 153 0l-630 -1331q-77 -21 -154 0zM1264 248h79q19 -68 0 -137h-79v-111q-92 -20 -181 0v111h-260q-19 68 0 137l303 387q69 21 138 0v-387zM1083 424l-137 -176h137v176z" />
<glyph unicode="&#xbf;" horiz-adv-x="993" d="M563 1016q65 0 109.5 -41t44.5 -103q0 -64 -44.5 -104.5t-109.5 -40.5t-109 40.5t-44 104.5q0 62 44 103t109 41zM430 516q57 10 133 10t133 -10q0 -69 -17 -115t-49 -80.5t-102 -89.5q-114 -86 -139 -111q-50 -54 -51 -116q0 -72 54.5 -116t146.5 -44q151 0 370 144 q14 -21 12.5 -121.5t-12.5 -132.5q-74 -49 -179.5 -80t-219.5 -31q-107 0 -193 30t-139 81t-80.5 114t-27.5 132q0 38 6.5 71t24 64t34 53.5t50.5 54t58 51.5t72 58q41 31 55.5 43.5t32.5 35t22.5 45.5t4.5 60z" />
<glyph unicode="&#xc0;" d="M690 1882l232 -334q-14 -28 -54.5 -59t-72.5 -37l-263 307q14 31 69 74t89 49zM838 1331l546 -1331q-57 -10 -137 -10t-137 10l-115 295h-536l-115 -295q-57 -10 -137 -10t-137 10l546 1331q111 20 222 0zM543 518h368l-184 471z" />
<glyph unicode="&#xc1;" d="M532 1548l232 334q34 -6 89 -49t69 -74l-263 -307q-32 6 -72.5 37t-54.5 59zM838 1331l546 -1331q-57 -10 -137 -10t-137 10l-115 295h-536l-115 -295q-57 -10 -137 -10t-137 10l546 1331q111 20 222 0zM543 518h368l-184 471z" />
<glyph unicode="&#xc2;" d="M768 1860l285 -285q-12 -32 -57.5 -75t-77.5 -52l-191 194l-190 -194q-31 9 -76.5 52t-57.5 75l283 285q17 14 42 14t40 -14zM838 1331l546 -1331q-57 -10 -137 -10t-137 10l-115 295h-536l-115 -295q-57 -10 -137 -10t-137 10l546 1331q111 20 222 0zM543 518h368 l-184 471z" />
<glyph unicode="&#xc3;" d="M596 1753q58 0 154 -45q58 -25 106 -25q27 0 61.5 11t55.5 21t59 30q21 -94 0 -184q-5 -2 -26.5 -14t-28.5 -15.5t-26.5 -12t-31 -11.5t-29 -6t-34.5 -3q-58 0 -154 45q-58 25 -106 25q-27 0 -61.5 -11t-55.5 -21t-59 -30q-22 94 0 185q4 2 22.5 12t25 13t22.5 11 t25.5 10.5t24 7t28 6t28.5 1.5zM838 1331l546 -1331q-57 -10 -137 -10t-137 10l-115 295h-536l-115 -295q-57 -10 -137 -10t-137 10l546 1331q111 20 222 0zM543 518h368l-184 471z" />
<glyph unicode="&#xc4;" d="M479 1796q65 0 109.5 -41.5t44.5 -103.5q0 -63 -44.5 -104.5t-109.5 -41.5t-109 41.5t-44 104.5t44 104t109 41zM977 1796q65 0 109 -41t44 -104t-44 -104.5t-109 -41.5t-109.5 41.5t-44.5 104.5q0 62 44.5 103.5t109.5 41.5zM838 1331l546 -1331q-57 -10 -137 -10 t-137 10l-115 295h-536l-115 -295q-57 -10 -137 -10t-137 10l546 1331q111 20 222 0zM543 518h368l-184 471z" />
<glyph unicode="&#xc5;" d="M727 1874q81 0 139 -57.5t58 -137.5q0 -82 -57.5 -139t-139.5 -57q-83 0 -141 57t-58 139q0 80 58 137.5t141 57.5zM727 1743q-27 0 -46 -18.5t-19 -45.5t19 -46t46 -19t45.5 19t18.5 46t-18.5 45.5t-45.5 18.5zM838 1331l546 -1331q-57 -10 -137 -10t-137 10l-115 295 h-536l-115 -295q-57 -10 -137 -10t-137 10l546 1331q111 20 222 0zM543 518h368l-184 471z" />
<glyph unicode="&#xc6;" horiz-adv-x="1726" d="M987 221h651q20 -110 0 -221h-915v295h-264l-115 -295q-57 -10 -137 -10t-137 10l546 1331h1022q20 -111 0 -221h-649l-2 -324h584q23 -111 0 -221h-584v-344zM723 979l-180 -461h180v461z" />
<glyph unicode="&#xc7;" horiz-adv-x="1423" d="M860 190q198 0 404 132q13 -20 12 -117t-12 -125q-159 -99 -367 -109v-77q61 5 113.5 -38t52.5 -120q0 -78 -55.5 -127t-141.5 -49q-84 0 -151 43q-9 23 -9 64t9 61q77 -54 135 -54q41 2 65.5 22t24.5 54q0 50 -48.5 68t-111.5 -8v161q-202 14 -357 111t-236 249t-81 335 q0 143 52.5 270t147 221.5t234.5 149.5t306 55q243 0 418 -111q11 -28 12 -124.5t-12 -116.5q-204 131 -404 131q-135 0 -244.5 -58t-174 -167.5t-64.5 -249.5t64.5 -249.5t174 -168t244.5 -58.5z" />
<glyph unicode="&#xc8;" horiz-adv-x="1161" d="M567 1882l232 -334q-14 -28 -54.5 -59t-72.5 -37l-262 307q14 31 68.5 74t88.5 49zM424 221h649q20 -110 0 -221h-915v1331h915q20 -111 0 -221h-649v-324h584q20 -111 0 -221h-584v-344z" />
<glyph unicode="&#xc9;" horiz-adv-x="1161" d="M410 1548l231 334q34 -6 89 -49t69 -74l-262 -307q-32 6 -72.5 37t-54.5 59zM424 221h649q20 -110 0 -221h-915v1331h915q20 -111 0 -221h-649v-324h584q20 -111 0 -221h-584v-344z" />
<glyph unicode="&#xca;" horiz-adv-x="1161" d="M643 1860l285 -285q-12 -32 -57.5 -75t-77.5 -52l-191 194l-190 -194q-31 9 -76 52t-57 75l282 285q17 14 42 14t40 -14zM424 221h649q20 -110 0 -221h-915v1331h915q20 -111 0 -221h-649v-324h584q20 -111 0 -221h-584v-344z" />
<glyph unicode="&#xcb;" horiz-adv-x="1161" d="M365 1796q65 0 109 -41t44 -104t-44 -104.5t-109 -41.5t-109.5 41.5t-44.5 104.5q0 62 44.5 103.5t109.5 41.5zM860 1796q65 0 109.5 -41.5t44.5 -103.5q0 -63 -44.5 -104.5t-109.5 -41.5t-109 41.5t-44 104.5t44 104t109 41zM424 221h649q20 -110 0 -221h-915v1331h915 q20 -111 0 -221h-649v-324h584q20 -111 0 -221h-584v-344z" />
<glyph unicode="&#xcc;" horiz-adv-x="579" d="M252 1882l231 -334q-14 -28 -54.5 -59t-72.5 -37l-262 307q14 31 69 74t89 49zM424 1331v-1331q-57 -10 -133 -10t-133 10v1331q57 11 133 11t133 -11z" />
<glyph unicode="&#xcd;" horiz-adv-x="579" d="M94 1548l232 334q34 -6 88.5 -49t68.5 -74l-262 -307q-32 6 -72.5 37t-54.5 59zM424 1331v-1331q-57 -10 -133 -10t-133 10v1331q57 11 133 11t133 -11z" />
<glyph unicode="&#xce;" horiz-adv-x="579" d="M330 1860l284 -285q-12 -32 -57 -75t-76 -52l-192 194l-191 -194q-31 9 -76 52t-57 75l283 285q17 14 42 14t40 -14zM424 1331v-1331q-57 -10 -133 -10t-133 10v1331q57 11 133 11t133 -11z" />
<glyph unicode="&#xcf;" horiz-adv-x="579" d="M43 1796q64 0 109 -41.5t45 -103.5t-45 -104t-109 -42q-65 0 -109.5 41.5t-44.5 104.5q0 62 44.5 103.5t109.5 41.5zM539 1796q65 0 109 -41t44 -104t-44 -104.5t-109 -41.5t-109.5 41.5t-44.5 104.5q0 62 44.5 103.5t109.5 41.5zM424 1331v-1331q-57 -10 -133 -10 t-133 10v1331q57 11 133 11t133 -11z" />
<glyph unicode="&#xd0;" d="M158 1331h483q160 0 293.5 -51t223.5 -140t140 -211t50 -263t-50 -263t-140 -211.5t-223.5 -140.5t-293.5 -51h-483v578h-97q-22 91 0 182h97v571zM422 221h219q195 0 314.5 119t119.5 326t-119.5 325.5t-314.5 118.5h-219v-350h203q22 -91 0 -185h-203v-354z" />
<glyph unicode="&#xd1;" horiz-adv-x="1474" d="M606 1753q58 0 154 -45q58 -25 106 -25q27 0 61.5 11t55.5 21t59 30q21 -94 0 -184q-5 -2 -26.5 -14t-28.5 -15.5t-26.5 -12t-31 -11.5t-29 -6t-34.5 -3q-57 0 -153 45q-58 25 -107 25q-27 0 -61.5 -11t-55.5 -21t-59 -30q-22 94 0 185q4 2 22.5 12t25 13t22.5 11 t25.5 10.5t24 7t28 6t28.5 1.5zM1323 1331v-1331q-103 -20 -209 0l-698 885v-885q-57 -10 -133 -10t-133 10v1331q104 19 208 0l701 -885v885q57 11 133 11t131 -11z" />
<glyph unicode="&#xd2;" horiz-adv-x="1617" d="M772 1882l232 -334q-14 -28 -54.5 -59t-72.5 -37l-263 307q14 31 69 74t89 49zM809 1362q154 0 286.5 -55t223.5 -149t142.5 -221.5t51.5 -270.5t-51.5 -270.5t-142.5 -222t-223.5 -149.5t-286.5 -55q-204 0 -366 94.5t-249.5 253t-87.5 349.5q0 143 51.5 270.5 t142.5 221.5t223.5 149t285.5 55zM809 1141q-184 0 -308 -132t-124 -343t124 -343.5t308 -132.5q185 0 309.5 132t124.5 344q0 211 -124.5 343t-309.5 132z" />
<glyph unicode="&#xd3;" horiz-adv-x="1617" d="M614 1548l232 334q34 -6 89 -49t69 -74l-263 -307q-32 6 -72.5 37t-54.5 59zM809 1362q154 0 286.5 -55t223.5 -149t142.5 -221.5t51.5 -270.5t-51.5 -270.5t-142.5 -222t-223.5 -149.5t-286.5 -55q-204 0 -366 94.5t-249.5 253t-87.5 349.5q0 143 51.5 270.5 t142.5 221.5t223.5 149t285.5 55zM809 1141q-184 0 -308 -132t-124 -343t124 -343.5t308 -132.5q185 0 309.5 132t124.5 344q0 211 -124.5 343t-309.5 132z" />
<glyph unicode="&#xd4;" horiz-adv-x="1617" d="M850 1860l285 -285q-12 -32 -58 -75t-78 -52l-190 194l-191 -194q-31 9 -76 52t-57 75l283 285q17 14 42 14t40 -14zM809 1362q154 0 286.5 -55t223.5 -149t142.5 -221.5t51.5 -270.5t-51.5 -270.5t-142.5 -222t-223.5 -149.5t-286.5 -55q-204 0 -366 94.5t-249.5 253 t-87.5 349.5q0 143 51.5 270.5t142.5 221.5t223.5 149t285.5 55zM809 1141q-184 0 -308 -132t-124 -343t124 -343.5t308 -132.5q185 0 309.5 132t124.5 344q0 211 -124.5 343t-309.5 132z" />
<glyph unicode="&#xd5;" horiz-adv-x="1617" d="M678 1753q57 0 153 -45q58 -25 107 -25q27 0 61.5 11t55.5 21t59 30q21 -94 0 -184q-5 -2 -26.5 -14t-28.5 -15.5t-26.5 -12t-31 -11.5t-29 -6t-34.5 -3q-58 0 -154 45q-58 25 -106 25q-27 0 -61.5 -11t-55.5 -21t-59 -30q-22 94 0 185q4 2 22.5 12t25 13t22.5 11 t25.5 10.5t24 7t28 6t28.5 1.5zM809 1362q154 0 286.5 -55t223.5 -149t142.5 -221.5t51.5 -270.5t-51.5 -270.5t-142.5 -222t-223.5 -149.5t-286.5 -55q-204 0 -366 94.5t-249.5 253t-87.5 349.5q0 143 51.5 270.5t142.5 221.5t223.5 149t285.5 55zM809 1141 q-184 0 -308 -132t-124 -343t124 -343.5t308 -132.5q185 0 309.5 132t124.5 344q0 211 -124.5 343t-309.5 132z" />
<glyph unicode="&#xd6;" horiz-adv-x="1617" d="M561 1796q65 0 109.5 -41.5t44.5 -103.5q0 -63 -44.5 -104.5t-109.5 -41.5t-109 41.5t-44 104.5t44 104t109 41zM1059 1796q65 0 109 -41t44 -104t-44 -104.5t-109 -41.5t-109.5 41.5t-44.5 104.5q0 62 44.5 103.5t109.5 41.5zM809 1362q154 0 286.5 -55t223.5 -149 t142.5 -221.5t51.5 -270.5t-51.5 -270.5t-142.5 -222t-223.5 -149.5t-286.5 -55q-204 0 -366 94.5t-249.5 253t-87.5 349.5q0 143 51.5 270.5t142.5 221.5t223.5 149t285.5 55zM809 1141q-184 0 -308 -132t-124 -343t124 -343.5t308 -132.5q185 0 309.5 132t124.5 344 q0 211 -124.5 343t-309.5 132z" />
<glyph unicode="&#xd7;" horiz-adv-x="770" d="M514 537l184 -185q-50 -80 -129 -131l-184 187l-184 -185q-80 50 -131 129l184 185l-184 184q50 81 131 131l184 -184l184 184q78 -50 131 -131z" />
<glyph unicode="&#xd8;" horiz-adv-x="1617" d="M1513 1331l-176 -192q176 -195 176 -473q0 -143 -51.5 -270.5t-142.5 -222t-223.5 -149.5t-286.5 -55q-241 0 -422 131l-92 -100q-38 -10 -94.5 -10t-94.5 10l177 193q-177 196 -177 473q0 143 51.5 270.5t142.5 221.5t223.5 149t285.5 55q240 0 424 -131l92 100 q38 11 94 11t94 -11zM377 666q0 -164 78 -285l616 672q-114 88 -262 88q-184 0 -308 -132t-124 -343zM1243 666q0 165 -80 284l-614 -671q112 -89 260 -89q185 0 309.5 132t124.5 344z" />
<glyph unicode="&#xd9;" horiz-adv-x="1419" d="M674 1882l231 -334q-14 -28 -54.5 -59t-72.5 -37l-262 307q14 31 69 74t89 49zM999 504v827q57 11 135.5 11t135.5 -11v-788q0 -288 -144 -431t-411 -143t-412 143.5t-145 430.5v788q57 11 135 11t135 -11v-827q0 -142 75.5 -228t211.5 -86q134 0 209 86t75 228z" />
<glyph unicode="&#xda;" horiz-adv-x="1419" d="M516 1548l232 334q34 -6 88.5 -49t68.5 -74l-262 -307q-32 6 -72.5 37t-54.5 59zM999 504v827q57 11 135.5 11t135.5 -11v-788q0 -288 -144 -431t-411 -143t-412 143.5t-145 430.5v788q57 11 135 11t135 -11v-827q0 -142 75.5 -228t211.5 -86q134 0 209 86t75 228z" />
<glyph unicode="&#xdb;" horiz-adv-x="1419" d="M752 1860l284 -285q-12 -32 -57.5 -75t-77.5 -52l-190 194l-191 -194q-31 9 -76 52t-57 75l283 285q17 14 42 14t40 -14zM999 504v827q57 11 135.5 11t135.5 -11v-788q0 -288 -144 -431t-411 -143t-412 143.5t-145 430.5v788q57 11 135 11t135 -11v-827q0 -142 75.5 -228 t211.5 -86q134 0 209 86t75 228z" />
<glyph unicode="&#xdc;" horiz-adv-x="1419" d="M463 1796q65 0 109 -41t44 -104t-44 -104.5t-109 -41.5t-109.5 41.5t-44.5 104.5q0 62 44.5 103.5t109.5 41.5zM961 1796q65 0 109 -41t44 -104t-44 -104.5t-109 -41.5t-109.5 41.5t-44.5 104.5q0 62 44.5 103.5t109.5 41.5zM999 504v827q57 11 135.5 11t135.5 -11v-788 q0 -288 -144 -431t-411 -143t-412 143.5t-145 430.5v788q57 11 135 11t135 -11v-827q0 -142 75.5 -228t211.5 -86q134 0 209 86t75 228z" />
<glyph unicode="&#xdd;" horiz-adv-x="1390" d="M500 1548l231 334q34 -6 89 -49t69 -74l-262 -307q-32 6 -72.5 37t-54.5 59zM829 475v-475q-57 -10 -133 -10t-133 10v475l-493 856q57 11 142 11t142 -11l342 -608l340 608q57 11 142.5 11t142.5 -11z" />
<glyph unicode="&#xde;" horiz-adv-x="1263" d="M424 1149h240q226 0 360.5 -122.5t134.5 -317.5t-134.5 -318t-360.5 -123h-240v-268q-57 -10 -133 -10t-133 10v1331q57 11 133 11t133 -11v-182zM422 489h240q104 0 165.5 59.5t61.5 160.5q0 102 -61 160.5t-166 58.5h-240v-439z" />
<glyph unicode="&#xdf;" horiz-adv-x="1179" d="M874 686q111 -44 168.5 -132t57.5 -206q0 -167 -111.5 -274t-304.5 -107q-140 0 -246 56q-11 33 -12 114.5t12 102.5q82 -64 201 -64q96 0 157.5 52.5t61.5 146.5q0 92 -63 142t-170 50h-105q-22 105 0 211h98q85 0 142 49.5t57 137.5q0 86 -55.5 137t-149.5 51 q-119 0 -185.5 -80.5t-66.5 -228.5v-844q-120 -22 -241 0v852q0 239 139 374.5t358 135.5q199 0 321 -109t122 -270q0 -100 -49 -178.5t-136 -118.5z" />
<glyph unicode="&#xe0;" horiz-adv-x="978" d="M453 1370l231 -334q-14 -28 -54.5 -59t-72.5 -37l-262 307q14 31 69 74t89 49zM473 850q199 0 292 -97.5t93 -287.5v-465q-104 -19 -209 0l-14 88q-47 -54 -116.5 -86.5t-145.5 -32.5q-123 0 -206 70.5t-83 193.5q0 122 83.5 193.5t213.5 71.5q73 0 135.5 -23t99.5 -55 v65q0 87 -46.5 128.5t-145.5 41.5q-125 0 -260 -77q-14 21 -12.5 93t12.5 101q47 32 128.5 55t180.5 23zM444 348q-59 0 -89.5 -28t-30.5 -70q0 -43 30.5 -71.5t87.5 -28.5q48 0 97 19.5t77 41.5v78q-26 22 -75 40.5t-97 18.5z" />
<glyph unicode="&#xe1;" horiz-adv-x="978" d="M295 1036l231 334q34 -6 89 -49t69 -74l-262 -307q-32 6 -72.5 37t-54.5 59zM473 850q199 0 292 -97.5t93 -287.5v-465q-104 -19 -209 0l-14 88q-47 -54 -116.5 -86.5t-145.5 -32.5q-123 0 -206 70.5t-83 193.5q0 122 83.5 193.5t213.5 71.5q73 0 135.5 -23t99.5 -55v65 q0 87 -46.5 128.5t-145.5 41.5q-125 0 -260 -77q-14 21 -12.5 93t12.5 101q47 32 128.5 55t180.5 23zM444 348q-59 0 -89.5 -28t-30.5 -70q0 -43 30.5 -71.5t87.5 -28.5q48 0 97 19.5t77 41.5v78q-26 22 -75 40.5t-97 18.5z" />
<glyph unicode="&#xe2;" horiz-adv-x="978" d="M528 1348l285 -285q-12 -32 -57.5 -75t-77.5 -52l-191 194l-190 -194q-31 9 -76 52t-57 75l282 285q17 14 42 14t40 -14zM473 850q199 0 292 -97.5t93 -287.5v-465q-104 -19 -209 0l-14 88q-47 -54 -116.5 -86.5t-145.5 -32.5q-123 0 -206 70.5t-83 193.5 q0 122 83.5 193.5t213.5 71.5q73 0 135.5 -23t99.5 -55v65q0 87 -46.5 128.5t-145.5 41.5q-125 0 -260 -77q-14 21 -12.5 93t12.5 101q47 32 128.5 55t180.5 23zM444 348q-59 0 -89.5 -28t-30.5 -70q0 -43 30.5 -71.5t87.5 -28.5q48 0 97 19.5t77 41.5v78q-26 22 -75 40.5 t-97 18.5z" />
<glyph unicode="&#xe3;" horiz-adv-x="978" d="M358 1241q58 0 154 -45q58 -25 106 -25q59 0 177 62q21 -94 0 -184q-2 -1 -26 -14t-29.5 -15.5t-26 -11.5t-32 -12t-29 -6t-34.5 -3q-57 0 -153 45q-58 25 -107 25q-27 0 -61.5 -11t-55.5 -21t-59 -30q-22 94 0 185q4 2 22.5 12t25 13t22.5 11t25.5 10.5t24 7t28 6 t28.5 1.5zM473 850q199 0 292 -97.5t93 -287.5v-465q-104 -19 -209 0l-14 88q-47 -54 -116.5 -86.5t-145.5 -32.5q-123 0 -206 70.5t-83 193.5q0 122 83.5 193.5t213.5 71.5q73 0 135.5 -23t99.5 -55v65q0 87 -46.5 128.5t-145.5 41.5q-125 0 -260 -77q-14 21 -12.5 93 t12.5 101q47 32 128.5 55t180.5 23zM444 348q-59 0 -89.5 -28t-30.5 -70q0 -43 30.5 -71.5t87.5 -28.5q48 0 97 19.5t77 41.5v78q-26 22 -75 40.5t-97 18.5z" />
<glyph unicode="&#xe4;" horiz-adv-x="978" d="M242 1284q65 0 109 -41t44 -104t-44 -104.5t-109 -41.5t-109.5 41.5t-44.5 104.5q0 62 44.5 103.5t109.5 41.5zM737 1284q65 0 109.5 -41.5t44.5 -103.5q0 -63 -44.5 -104.5t-109.5 -41.5t-109 41.5t-44 104.5t44 104t109 41zM473 850q199 0 292 -97.5t93 -287.5v-465 q-104 -19 -209 0l-14 88q-47 -54 -116.5 -86.5t-145.5 -32.5q-123 0 -206 70.5t-83 193.5q0 122 83.5 193.5t213.5 71.5q73 0 135.5 -23t99.5 -55v65q0 87 -46.5 128.5t-145.5 41.5q-125 0 -260 -77q-14 21 -12.5 93t12.5 101q47 32 128.5 55t180.5 23zM444 348 q-59 0 -89.5 -28t-30.5 -70q0 -43 30.5 -71.5t87.5 -28.5q48 0 97 19.5t77 41.5v78q-26 22 -75 40.5t-97 18.5z" />
<glyph unicode="&#xe5;" horiz-adv-x="978" d="M489 1362q81 0 139 -57.5t58 -137.5q0 -82 -57.5 -139t-139.5 -57q-83 0 -140.5 57t-57.5 139q0 80 57.5 137.5t140.5 57.5zM489 1231q-27 0 -46 -18.5t-19 -45.5t19 -46t46 -19t45.5 19t18.5 46t-18.5 45.5t-45.5 18.5zM473 850q199 0 292 -97.5t93 -287.5v-465 q-104 -19 -209 0l-14 88q-47 -54 -116.5 -86.5t-145.5 -32.5q-123 0 -206 70.5t-83 193.5q0 122 83.5 193.5t213.5 71.5q73 0 135.5 -23t99.5 -55v65q0 87 -46.5 128.5t-145.5 41.5q-125 0 -260 -77q-14 21 -12.5 93t12.5 101q47 32 128.5 55t180.5 23zM444 348 q-59 0 -89.5 -28t-30.5 -70q0 -43 30.5 -71.5t87.5 -28.5q48 0 97 19.5t77 41.5v78q-26 22 -75 40.5t-97 18.5z" />
<glyph unicode="&#xe6;" horiz-adv-x="1540" d="M1057 850q67 0 125.5 -16.5t101.5 -44.5t76.5 -66t53.5 -81t30.5 -89t9.5 -90.5t-12 -85.5h-584q10 -96 76.5 -150.5t167.5 -54.5q130 0 268 84q14 -20 13.5 -95.5t-13.5 -103.5q-111 -88 -295 -88q-168 0 -276 94l-8 -63q-71 -23 -142 0l-14 88q-47 -54 -116.5 -86.5 t-145.5 -32.5q-123 0 -206 70.5t-83 193.5q0 122 83.5 193.5t213.5 71.5q72 0 134.5 -22.5t98.5 -53.5l2 63q0 87 -46.5 128.5t-145.5 41.5q-125 0 -260 -77q-14 21 -12.5 93t12.5 101q47 32 128.5 55t180.5 23q204 0 291 -117q114 117 293 117zM872 504h351 q-3 76 -47.5 120t-116.5 44q-74 0 -124 -44t-63 -120zM616 211v78q-26 22 -75 40.5t-97 18.5q-59 0 -89.5 -28t-30.5 -70q0 -43 30.5 -71.5t87.5 -28.5q48 0 97 19.5t77 41.5z" />
<glyph unicode="&#xe7;" horiz-adv-x="964" d="M575 172q114 0 256 84q14 -20 13.5 -95.5t-13.5 -103.5q-104 -81 -249 -88v-75q61 5 113.5 -38t52.5 -120q0 -78 -55 -127t-142 -49q-85 0 -152 43q-9 23 -9 64t9 61q77 -54 136 -54q41 2 65.5 22t24.5 54q0 50 -48.5 68t-111.5 -8v165q-170 26 -272.5 144.5 t-102.5 290.5q0 194 128 317t333 123q169 0 280 -88q13 -28 13.5 -103.5t-13.5 -95.5q-142 84 -256 84q-105 0 -174 -64.5t-69 -172.5t69 -173t174 -65z" />
<glyph unicode="&#xe8;" horiz-adv-x="1015" d="M492 1370l231 -334q-14 -28 -54.5 -59t-72.5 -37l-262 307q14 31 69 74t89 49zM532 850q68 0 126.5 -16.5t101.5 -44.5t76.5 -66t53.5 -81t30.5 -89t9.5 -90.5t-12 -85.5h-584q10 -96 76.5 -150.5t167.5 -54.5q128 0 270 84q13 -20 12 -95.5t-12 -103.5 q-115 -88 -297 -88q-208 0 -334.5 122.5t-126.5 320.5q0 192 124 315t318 123zM535 668q-74 0 -124 -44t-63 -120h350q-3 76 -47 120t-116 44z" />
<glyph unicode="&#xe9;" horiz-adv-x="1015" d="M334 1036l231 334q34 -6 89 -49t69 -74l-262 -307q-32 6 -72.5 37t-54.5 59zM532 850q68 0 126.5 -16.5t101.5 -44.5t76.5 -66t53.5 -81t30.5 -89t9.5 -90.5t-12 -85.5h-584q10 -96 76.5 -150.5t167.5 -54.5q128 0 270 84q13 -20 12 -95.5t-12 -103.5q-115 -88 -297 -88 q-208 0 -334.5 122.5t-126.5 320.5q0 192 124 315t318 123zM535 668q-74 0 -124 -44t-63 -120h350q-3 76 -47 120t-116 44z" />
<glyph unicode="&#xea;" horiz-adv-x="1015" d="M569 1348l285 -285q-12 -32 -57.5 -75t-77.5 -52l-191 194l-190 -194q-31 9 -76 52t-57 75l282 285q17 14 42 14t40 -14zM532 850q68 0 126.5 -16.5t101.5 -44.5t76.5 -66t53.5 -81t30.5 -89t9.5 -90.5t-12 -85.5h-584q10 -96 76.5 -150.5t167.5 -54.5q128 0 270 84 q13 -20 12 -95.5t-12 -103.5q-115 -88 -297 -88q-208 0 -334.5 122.5t-126.5 320.5q0 192 124 315t318 123zM535 668q-74 0 -124 -44t-63 -120h350q-3 76 -47 120t-116 44z" />
<glyph unicode="&#xeb;" horiz-adv-x="1015" d="M281 1284q65 0 109 -41t44 -104t-44 -104.5t-109 -41.5t-109.5 41.5t-44.5 104.5q0 62 44.5 103.5t109.5 41.5zM778 1284q65 0 109.5 -41.5t44.5 -103.5q0 -63 -44.5 -104.5t-109.5 -41.5t-109 41.5t-44 104.5t44 104t109 41zM532 850q68 0 126.5 -16.5t101.5 -44.5 t76.5 -66t53.5 -81t30.5 -89t9.5 -90.5t-12 -85.5h-584q10 -96 76.5 -150.5t167.5 -54.5q128 0 270 84q13 -20 12 -95.5t-12 -103.5q-115 -88 -297 -88q-208 0 -334.5 122.5t-126.5 320.5q0 192 124 315t318 123zM535 668q-74 0 -124 -44t-63 -120h350q-3 76 -47 120 t-116 44z" />
<glyph unicode="&#xec;" horiz-adv-x="493" d="M213 1370l231 -334q-14 -28 -54.5 -59t-72.5 -37l-262 307q14 31 69 74t89 49zM369 819v-819q-121 -22 -242 0v819q121 22 242 0z" />
<glyph unicode="&#xed;" horiz-adv-x="493" d="M55 1036l232 334q34 -6 88.5 -49t68.5 -74l-262 -307q-32 6 -72.5 37t-54.5 59zM369 819v-819q-121 -22 -242 0v819q121 22 242 0z" />
<glyph unicode="&#xee;" horiz-adv-x="493" d="M291 1348l284 -285q-12 -32 -58 -75t-77 -52l-190 194l-191 -194q-31 9 -76 52t-57 75l283 285q17 14 42 14t40 -14zM369 819v-819q-121 -22 -242 0v819q121 22 242 0z" />
<glyph unicode="&#xef;" horiz-adv-x="493" d="M2 1284q64 0 108 -41.5t44 -103.5t-44 -104t-108 -42q-65 0 -109.5 41.5t-44.5 104.5q0 62 44.5 103.5t109.5 41.5zM498 1284q65 0 109 -41t44 -104t-44 -104.5t-109 -41.5t-109.5 41.5t-44.5 104.5q0 62 44.5 103.5t109.5 41.5zM369 819v-819q-121 -22 -242 0v819 q121 22 242 0z" />
<glyph unicode="&#xf0;" horiz-adv-x="1062" d="M829 1159l-98 -57q116 -111 179 -261.5t63 -330.5v-45q0 -227 -122.5 -361.5t-320.5 -134.5q-194 0 -320 127t-126 318q0 175 105.5 297.5t279.5 122.5q150 0 256 -111q-45 155 -190 262l-232 -137q-23 70 0 139l109 66q-93 41 -203 59q-11 28 -12 113.5t12 105.5 q241 -27 422 -149l198 118q22 -69 0 -141zM733 416v45q0 38 -4 78q-34 33 -90 59.5t-111 26.5q-84 0 -143 -59t-59 -160q0 -102 58.5 -165t145.5 -63q89 0 146 59.5t57 178.5z" />
<glyph unicode="&#xf1;" horiz-adv-x="1048" d="M393 1241q58 0 154 -45q58 -25 106 -25q27 0 61.5 11t55.5 21t59 30q21 -94 0 -184q-5 -2 -26.5 -14t-28.5 -15.5t-26.5 -12t-31 -11.5t-29 -6t-34.5 -3q-57 0 -153 45q-58 25 -107 25q-27 0 -61.5 -11t-55.5 -21t-59 -30q-22 94 0 185q4 2 22.5 12t25 13t22.5 11 t25.5 10.5t24 7t28 6t28.5 1.5zM623 850q66 0 119 -18.5t87.5 -49t57.5 -73t33 -87.5t10 -94v-528q-121 -22 -242 0v475q0 79 -37 122.5t-110 43.5q-51 0 -98 -25.5t-78 -58.5v-557q-121 -22 -242 0v819q105 19 209 0l18 -106q52 59 124 98t149 39z" />
<glyph unicode="&#xf2;" horiz-adv-x="1083" d="M504 1370l231 -334q-14 -28 -54.5 -59t-72.5 -37l-262 307q14 31 69 74t89 49zM541 850q195 0 322.5 -127t127.5 -313t-127.5 -313.5t-322.5 -127.5t-323 127.5t-128 313.5q0 185 127.5 312.5t323.5 127.5zM541 641q-91 0 -150 -63.5t-59 -167.5t59 -168t150 -64t150 64 t59 168t-59 167.5t-150 63.5z" />
<glyph unicode="&#xf3;" horiz-adv-x="1083" d="M346 1036l232 334q34 -6 88.5 -49t68.5 -74l-262 -307q-32 6 -72.5 37t-54.5 59zM541 850q195 0 322.5 -127t127.5 -313t-127.5 -313.5t-322.5 -127.5t-323 127.5t-128 313.5q0 185 127.5 312.5t323.5 127.5zM541 641q-91 0 -150 -63.5t-59 -167.5t59 -168t150 -64 t150 64t59 168t-59 167.5t-150 63.5z" />
<glyph unicode="&#xf4;" horiz-adv-x="1083" d="M582 1348l284 -285q-12 -32 -57.5 -75t-77.5 -52l-190 194l-191 -194q-31 9 -76 52t-57 75l283 285q17 14 42 14t40 -14zM541 850q195 0 322.5 -127t127.5 -313t-127.5 -313.5t-322.5 -127.5t-323 127.5t-128 313.5q0 185 127.5 312.5t323.5 127.5zM541 641 q-91 0 -150 -63.5t-59 -167.5t59 -168t150 -64t150 64t59 168t-59 167.5t-150 63.5z" />
<glyph unicode="&#xf5;" horiz-adv-x="1083" d="M410 1241q57 0 153 -45q58 -25 107 -25q27 0 61.5 11t55.5 21t59 30q21 -94 0 -184q-5 -2 -26.5 -14t-28.5 -15.5t-26.5 -12t-31 -11.5t-29 -6t-34.5 -3q-58 0 -154 45q-58 25 -106 25q-59 0 -177 -62q-22 94 0 185q2 1 22.5 12t25 13t22.5 10.5t26.5 11t23.5 7t28.5 6 t28.5 1.5zM541 850q195 0 322.5 -127t127.5 -313t-127.5 -313.5t-322.5 -127.5t-323 127.5t-128 313.5q0 185 127.5 312.5t323.5 127.5zM541 641q-91 0 -150 -63.5t-59 -167.5t59 -168t150 -64t150 64t59 168t-59 167.5t-150 63.5z" />
<glyph unicode="&#xf6;" horiz-adv-x="1083" d="M293 1284q65 0 109 -41t44 -104t-44 -104.5t-109 -41.5t-109.5 41.5t-44.5 104.5q0 62 44.5 103.5t109.5 41.5zM791 1284q65 0 109 -41t44 -104t-44 -104.5t-109 -41.5t-109.5 41.5t-44.5 104.5q0 62 44.5 103.5t109.5 41.5zM541 850q195 0 322.5 -127t127.5 -313 t-127.5 -313.5t-322.5 -127.5t-323 127.5t-128 313.5q0 185 127.5 312.5t323.5 127.5zM541 641q-91 0 -150 -63.5t-59 -167.5t59 -168t150 -64t150 64t59 168t-59 167.5t-150 63.5z" />
<glyph unicode="&#xf7;" horiz-adv-x="866" d="M434 995q65 0 109.5 -40.5t44.5 -104.5q0 -62 -44.5 -102.5t-109.5 -40.5t-109 40.5t-44 102.5q0 64 44 104.5t109 40.5zM82 629h704q22 -91 0 -185l-704 2q-22 92 0 183zM434 367q65 0 109.5 -41t44.5 -105q0 -61 -44.5 -102t-109.5 -41t-109 41t-44 102q0 64 44 105 t109 41z" />
<glyph unicode="&#xf8;" horiz-adv-x="1083" d="M991 819l-106 -121q106 -118 106 -288q0 -186 -127.5 -313.5t-322.5 -127.5q-134 0 -240 64l-29 -33q-38 -10 -91 -10t-91 10l107 121q-107 120 -107 289q0 185 127.5 312.5t323.5 127.5q133 0 239 -64l29 33q38 11 91 11t91 -11zM332 410q0 -59 22 -111l281 322 q-48 20 -94 20q-91 0 -150 -63.5t-59 -167.5zM750 410q0 56 -23 110l-281 -321q51 -21 95 -21q91 0 150 64t59 168z" />
<glyph unicode="&#xf9;" horiz-adv-x="1044" d="M485 1370l232 -334q-14 -28 -54.5 -59t-72.5 -37l-262 307q14 31 68.5 74t88.5 49zM684 262v557q121 22 242 0v-819q-106 -20 -209 0l-19 106q-52 -59 -123.5 -98t-148.5 -39q-82 0 -144 27.5t-96 75t-50.5 102t-16.5 117.5v528q121 22 241 0v-475q0 -78 37.5 -122 t110.5 -44q92 0 176 84z" />
<glyph unicode="&#xfa;" horiz-adv-x="1044" d="M328 1036l231 334q34 -6 89 -49t69 -74l-262 -307q-32 6 -72.5 37t-54.5 59zM684 262v557q121 22 242 0v-819q-106 -20 -209 0l-19 106q-52 -59 -123.5 -98t-148.5 -39q-82 0 -144 27.5t-96 75t-50.5 102t-16.5 117.5v528q121 22 241 0v-475q0 -78 37.5 -122t110.5 -44 q92 0 176 84z" />
<glyph unicode="&#xfb;" horiz-adv-x="1044" d="M563 1348l285 -285q-12 -32 -57.5 -75t-77.5 -52l-191 194l-190 -194q-31 9 -76 52t-57 75l282 285q17 14 42 14t40 -14zM684 262v557q121 22 242 0v-819q-106 -20 -209 0l-19 106q-52 -59 -123.5 -98t-148.5 -39q-82 0 -144 27.5t-96 75t-50.5 102t-16.5 117.5v528 q121 22 241 0v-475q0 -78 37.5 -122t110.5 -44q92 0 176 84z" />
<glyph unicode="&#xfc;" horiz-adv-x="1044" d="M274 1284q65 0 109.5 -41.5t44.5 -103.5q0 -63 -44.5 -104.5t-109.5 -41.5t-109 41.5t-44 104.5t44 104t109 41zM772 1284q65 0 109.5 -41.5t44.5 -103.5q0 -63 -44.5 -104.5t-109.5 -41.5t-109.5 41.5t-44.5 104.5q0 62 44.5 103.5t109.5 41.5zM684 262v557 q121 22 242 0v-819q-106 -20 -209 0l-19 106q-52 -59 -123.5 -98t-148.5 -39q-82 0 -144 27.5t-96 75t-50.5 102t-16.5 117.5v528q121 22 241 0v-475q0 -78 37.5 -122t110.5 -44q92 0 176 84z" />
<glyph unicode="&#xfd;" horiz-adv-x="1060" d="M336 1036l231 334q34 -6 89 -49t69 -74l-262 -307q-32 6 -72.5 37t-54.5 59zM530 330l211 489q127 23 254 0l-524 -1153q-123 -23 -246 0l183 402l-342 751q126 23 253 0z" />
<glyph unicode="&#xfe;" horiz-adv-x="1105" d="M629 850q174 0 280.5 -126t106.5 -314t-106.5 -314.5t-280.5 -126.5q-162 0 -260 115v-418q-121 -22 -242 0v1665q121 22 242 0v-596q100 115 260 115zM563 178q94 0 152.5 63.5t58.5 168.5t-58.5 168t-152.5 63q-111 0 -194 -88v-287q83 -88 194 -88z" />
<glyph unicode="&#xff;" horiz-adv-x="1060" d="M283 1284q65 0 109 -41t44 -104t-44 -104.5t-109 -41.5t-109.5 41.5t-44.5 104.5q0 62 44.5 103.5t109.5 41.5zM780 1284q65 0 109.5 -41.5t44.5 -103.5q0 -63 -44.5 -104.5t-109.5 -41.5t-109 41.5t-44 104.5t44 104t109 41zM530 330l211 489q127 23 254 0l-524 -1153 q-123 -23 -246 0l183 402l-342 751q126 23 253 0z" />
<glyph unicode="&#x152;" horiz-adv-x="2252" d="M1513 221h652q20 -111 0 -221h-918v147q-78 -84 -191 -131t-247 -47q-204 0 -366 94.5t-249.5 253t-87.5 349.5q0 143 51.5 270.5t142.5 221.5t223.5 149t285.5 55q133 0 246 -47t192 -129v145h918q20 -111 0 -221h-652v-324h584q20 -110 0 -221h-584v-344zM809 190 q185 0 309.5 132t124.5 344q0 213 -124.5 344t-309.5 131q-184 0 -308 -131.5t-124 -343.5q0 -211 124 -343.5t308 -132.5z" />
<glyph unicode="&#x153;" horiz-adv-x="1675" d="M1192 850q68 0 126.5 -16.5t101.5 -44.5t76.5 -66t53.5 -81t30 -89t9 -90.5t-12 -85.5h-582q9 -95 75.5 -150t166.5 -55q128 0 270 84q13 -20 12 -95.5t-12 -103.5q-48 -38 -124.5 -63t-170.5 -25q-111 0 -199 39t-145 109q-57 -69 -141 -108.5t-186 -39.5 q-195 0 -323 127.5t-128 313.5q0 185 127.5 312.5t323.5 127.5q102 0 186 -39.5t141 -108.5q55 69 139 108.5t185 39.5zM1194 668q-73 0 -122.5 -43.5t-63.5 -120.5h350q-3 76 -47.5 120t-116.5 44zM541 641q-91 0 -150 -63.5t-59 -167.5t59 -168t150 -64t150 64t59 168 t-59 167.5t-150 63.5z" />
<glyph unicode="&#x178;" horiz-adv-x="1390" d="M449 1796q65 0 109 -41t44 -104t-44 -104.5t-109 -41.5t-109.5 41.5t-44.5 104.5q0 62 44.5 103.5t109.5 41.5zM944 1796q65 0 109.5 -41.5t44.5 -103.5q0 -63 -44.5 -104.5t-109.5 -41.5t-109 41.5t-44 104.5t44 104t109 41zM829 475v-475q-57 -10 -133 -10t-133 10v475 l-493 856q57 11 142 11t142 -11l342 -608l340 608q57 11 142.5 11t142.5 -11z" />
<glyph unicode="&#x2c6;" horiz-adv-x="788" d="M434 1860l285 -285q-12 -32 -57.5 -75t-77.5 -52l-191 194l-190 -194q-31 9 -76 52t-57 75l282 285q17 14 42 14t40 -14z" />
<glyph unicode="&#x2dc;" horiz-adv-x="774" d="M258 1753q58 0 154 -45q58 -25 106 -25q27 0 61.5 11t55.5 21t59 30q21 -94 0 -184q-5 -2 -26.5 -14t-28.5 -15.5t-26.5 -12t-31 -11.5t-29 -6t-34.5 -3q-57 0 -153 45q-58 25 -107 25q-27 0 -61.5 -11t-55.5 -21t-59 -30q-22 94 0 185q4 2 22.5 12t25 13t22.5 11 t25.5 10.5t24 7t28 6t28.5 1.5z" />
<glyph unicode="&#x2000;" horiz-adv-x="941" />
<glyph unicode="&#x2001;" horiz-adv-x="1882" />
<glyph unicode="&#x2002;" horiz-adv-x="941" />
<glyph unicode="&#x2003;" horiz-adv-x="1882" />
<glyph unicode="&#x2004;" horiz-adv-x="627" />
<glyph unicode="&#x2005;" horiz-adv-x="470" />
<glyph unicode="&#x2006;" horiz-adv-x="313" />
<glyph unicode="&#x2007;" horiz-adv-x="313" />
<glyph unicode="&#x2008;" horiz-adv-x="235" />
<glyph unicode="&#x2009;" horiz-adv-x="376" />
<glyph unicode="&#x200a;" horiz-adv-x="104" />
<glyph unicode="&#x2010;" horiz-adv-x="724" d="M82 629h563q22 -91 0 -185l-563 2q-22 92 0 183z" />
<glyph unicode="&#x2011;" horiz-adv-x="724" d="M82 629h563q22 -91 0 -185l-563 2q-22 92 0 183z" />
<glyph unicode="&#x2012;" horiz-adv-x="724" d="M82 629h563q22 -91 0 -185l-563 2q-22 92 0 183z" />
<glyph unicode="&#x2013;" horiz-adv-x="1017" d="M82 629h856q22 -91 0 -185l-856 2q-22 92 0 183z" />
<glyph unicode="&#x2014;" horiz-adv-x="1247" d="M82 629h1085q22 -91 0 -185l-1085 2q-22 92 0 183z" />
<glyph unicode="&#x2018;" horiz-adv-x="462" d="M369 1331q-62 -60 -104 -135t-60 -139q24 4 35 4q64 0 107.5 -40.5t43.5 -102.5q0 -63 -44 -104.5t-109 -41.5q-66 0 -116 45.5t-50 138.5q-3 108 55 224t109 151q65 14 133 0z" />
<glyph unicode="&#x2019;" horiz-adv-x="462" d="M225 1362q66 0 116.5 -46.5t51.5 -139.5q1 -107 -56.5 -223t-109.5 -150q-65 -14 -133 0q110 103 166 274q-28 -4 -37 -4q-64 0 -107.5 41t-43.5 103q0 63 44 104t109 41z" />
<glyph unicode="&#x201a;" horiz-adv-x="462" d="M225 258q66 0 116.5 -45.5t51.5 -138.5q1 -108 -56.5 -224.5t-109.5 -150.5q-65 -14 -133 0q110 103 166 274q-28 -4 -37 -4q-64 0 -107.5 41t-43.5 103q0 63 44 104t109 41z" />
<glyph unicode="&#x201c;" horiz-adv-x="854" d="M369 1331q-62 -60 -104 -135t-60 -139q24 4 35 4q64 0 107.5 -40.5t43.5 -102.5q0 -63 -44 -104.5t-109 -41.5q-66 0 -116 45.5t-50 138.5q-3 108 55 224t109 151q65 14 133 0zM760 1331q-62 -60 -104 -135t-60 -139q24 4 35 4q64 0 107.5 -40.5t43.5 -102.5 q0 -63 -44 -104.5t-109 -41.5q-66 0 -116 45.5t-50 138.5q-3 108 55 224t109 151q65 14 133 0z" />
<glyph unicode="&#x201d;" horiz-adv-x="854" d="M225 1362q66 0 116.5 -46.5t51.5 -139.5q1 -107 -56.5 -223t-109.5 -150q-65 -14 -133 0q110 103 166 274q-28 -4 -37 -4q-64 0 -107.5 41t-43.5 103q0 63 44 104t109 41zM616 1362q66 0 116.5 -46.5t51.5 -139.5q1 -107 -56.5 -223t-109.5 -150q-65 -14 -133 0 q110 103 166 274q-28 -4 -37 -4q-64 0 -107.5 41t-43.5 103q0 63 44 104t109 41z" />
<glyph unicode="&#x201e;" horiz-adv-x="854" d="M225 258q66 0 116.5 -45.5t51.5 -138.5q1 -108 -56.5 -224.5t-109.5 -150.5q-65 -14 -133 0q110 103 166 274q-28 -4 -37 -4q-64 0 -107.5 41t-43.5 103q0 63 44 104t109 41zM616 258q66 0 116.5 -45.5t51.5 -138.5q1 -108 -56.5 -224.5t-109.5 -150.5q-65 -14 -133 0 q110 103 166 274q-28 -4 -37 -4q-64 0 -107.5 41t-43.5 103q0 63 44 104t109 41z" />
<glyph unicode="&#x2022;" horiz-adv-x="724" d="M362 879q120 0 205.5 -86t85.5 -207t-85.5 -207t-205.5 -86q-121 0 -206.5 85.5t-85.5 207.5t85.5 207.5t206.5 85.5z" />
<glyph unicode="&#x2026;" horiz-adv-x="1351" d="M223 -31q-65 0 -109 41t-44 103q0 64 44 104.5t109 40.5t109.5 -40.5t44.5 -104.5q0 -62 -44.5 -103t-109.5 -41zM676 -31q-65 0 -109.5 41t-44.5 103q0 64 44.5 104.5t109.5 40.5t109 -40.5t44 -104.5q0 -62 -44 -103t-109 -41zM1126 -31q-65 0 -109 41t-44 103 q0 64 44 104.5t109 40.5t109.5 -40.5t44.5 -104.5q0 -62 -44.5 -103t-109.5 -41z" />
<glyph unicode="&#x202f;" horiz-adv-x="376" />
<glyph unicode="&#x2039;" horiz-adv-x="573" d="M309 444l193 -319q-57 -11 -94 -11t-93 11l-245 319l245 320q56 10 93 10t94 -10z" />
<glyph unicode="&#x203a;" horiz-adv-x="573" d="M502 444l-244 -319q-57 -11 -94 -11t-94 11l192 319l-192 320q57 10 94 10t94 -10z" />
<glyph unicode="&#x205f;" horiz-adv-x="470" />
<glyph unicode="&#x20ac;" horiz-adv-x="1560" d="M995 190q199 0 404 132q13 -20 12 -117t-12 -125q-171 -111 -418 -111q-284 0 -478 152t-245 391h-176q-22 43 0 86h164q-4 46 -4 68q0 21 4 67h-164q-22 43 0 86h176q51 239 245 391t478 152q247 0 418 -111q11 -28 12 -124.5t-12 -116.5q-204 131 -404 131 q-164 0 -288 -87t-170 -235h520q22 -43 0 -86h-541q-4 -46 -4 -67q0 -22 4 -68h459q22 -43 0 -86h-438q46 -148 170 -235t288 -87z" />
<glyph unicode="&#x2122;" horiz-adv-x="1185" d="M999 1329l115 -411q-60 -12 -123 0l-55 225l-90 -225q-49 -10 -98 0l-93 225l-57 -225q-60 -12 -121 0l117 411q49 10 96 0l107 -248l102 248q50 10 100 0zM76 1331h411q11 -54 0 -110l-143 2v-305q-64 -13 -127 0v305h-141q-11 54 0 108z" />
<glyph unicode="&#x25fc;" horiz-adv-x="829" d="M0 829h829v-829h-829v829z" />
</font>
</defs>
</svg>
